<?xml version="1.0" encoding="UTF-8"?>
<svg id="Layer_1" xmlns="http://www.w3.org/2000/svg" viewBox="0 0 320.19 287">
    <path d="M283.5,135.5h0V3.5H3.5v280h280v-85"
        style="fill:none; stroke:#000; stroke-miterlimit:10; stroke-width:7px;" />
    <path d="M37.64,147.85v7.04h-16.19v9.99h13.48v7.06h-13.48v15.35h-9.2v-39.44h25.39Z" />
    <path
        d="M59.76,172.7v14.59h-9.15v-39.44h12.83c2.85,0,5.28.29,7.29.88,2.01.59,3.65,1.4,4.93,2.45,1.27,1.05,2.2,2.28,2.77,3.71.58,1.43.87,2.98.87,4.66,0,1.28-.17,2.49-.51,3.63-.34,1.14-.85,2.19-1.53,3.15-.68.97-1.51,1.83-2.49,2.58-.98.76-2.12,1.38-3.4,1.87.61.31,1.18.69,1.71,1.15.52.46.99,1.01,1.41,1.64l8.39,13.72h-8.28c-1.53,0-2.64-.58-3.3-1.73l-6.55-11.45c-.31-.49-.65-.84-1.03-1.07s-.92-.34-1.62-.34h-2.33ZM59.76,166.39h3.68c1.25,0,2.31-.16,3.18-.47.88-.32,1.59-.75,2.15-1.31.56-.56.97-1.21,1.22-1.96.25-.75.38-1.56.38-2.42,0-1.73-.56-3.09-1.69-4.06-1.13-.97-2.87-1.46-5.24-1.46h-3.68v11.69Z" />
    <path
        d="M129.27,187.29h-7.09c-.79,0-1.43-.18-1.92-.55s-.86-.84-1.11-1.42l-2.33-6.88h-15l-2.33,6.88c-.2.5-.55.96-1.07,1.37-.51.41-1.15.61-1.91.61h-7.15l15.27-39.44h9.37l15.27,39.44ZM103.93,172.21h10.77l-3.63-10.8c-.27-.69-.56-1.49-.87-2.42-.31-.93-.61-1.93-.92-3.02-.29,1.1-.58,2.12-.88,3.06s-.58,1.75-.85,2.44l-3.63,10.75Z" />
    <path
        d="M161.27,171.4c.33.74.65,1.5.96,2.27.31-.79.63-1.57.96-2.33.33-.76.69-1.48,1.07-2.17l10.12-19.92c.18-.34.37-.61.55-.8s.4-.33.64-.42.5-.14.8-.16c.3-.02.65-.03,1.04-.03h6.98v39.44h-8.07v-22.68c0-1.1.05-2.29.16-3.57l-10.45,20.27c-.32.63-.76,1.11-1.31,1.43-.55.33-1.18.49-1.88.49h-1.25c-.7,0-1.33-.16-1.88-.49-.55-.32-.99-.8-1.31-1.43l-10.5-20.3c.07.63.13,1.26.16,1.88.04.62.05,1.2.05,1.72v22.68h-8.07v-39.44h6.98c.4,0,.75,0,1.04.03.3.02.56.07.8.16s.45.23.64.42.37.46.55.8l10.15,20c.36.69.71,1.4,1.04,2.14Z" />
    <path d="M225.11,147.85v7.04h-16.19v9.2h12.4v6.77h-12.4v9.39h16.19v7.04h-25.39v-39.44h25.39Z" />
    <path
        d="M279.45,167.55c0,2.85-.49,5.5-1.47,7.96-.98,2.45-2.37,4.59-4.16,6.4s-3.94,3.23-6.46,4.26c-2.52,1.03-5.31,1.54-8.38,1.54s-5.87-.51-8.39-1.54c-2.53-1.03-4.69-2.45-6.48-4.26-1.79-1.81-3.18-3.95-4.17-6.4s-1.47-5.11-1.47-7.96.49-5.5,1.47-7.96,2.37-4.58,4.17-6.39c1.8-1.8,3.96-3.22,6.48-4.25,2.53-1.03,5.32-1.54,8.39-1.54s5.86.52,8.38,1.56c2.52,1.04,4.67,2.46,6.46,4.26,1.79,1.8,3.17,3.93,4.16,6.39.98,2.45,1.47,5.1,1.47,7.93ZM270.08,167.55c0-1.95-.25-3.7-.76-5.26-.51-1.56-1.23-2.88-2.18-3.97-.95-1.08-2.11-1.91-3.48-2.49-1.37-.58-2.93-.87-4.68-.87s-3.34.29-4.72.87c-1.38.58-2.54,1.41-3.49,2.49-.95,1.08-1.67,2.41-2.18,3.97-.5,1.56-.76,3.32-.76,5.26s.25,3.73.76,5.29c.51,1.56,1.23,2.88,2.18,3.96.95,1.08,2.11,1.91,3.49,2.48,1.38.57,2.96.85,4.72.85s3.31-.28,4.68-.85c1.37-.57,2.53-1.39,3.48-2.48.95-1.08,1.67-2.4,2.18-3.96.5-1.56.76-3.33.76-5.29Z"
        style="fill:none; stroke:#000; stroke-miterlimit:10; stroke-width:3px;" />
    <path
        d="M314.31,155.86c-.27.43-.55.76-.85.97s-.68.33-1.15.33c-.42,0-.86-.13-1.34-.39-.48-.26-1.02-.56-1.62-.88-.61-.33-1.29-.62-2.07-.88-.78-.26-1.66-.39-2.65-.39-1.71,0-2.99.37-3.83,1.1-.84.73-1.26,1.72-1.26,2.96,0,.79.25,1.45.76,1.98.5.52,1.17.97,1.99,1.35s1.76.73,2.82,1.04c1.05.32,2.13.67,3.23,1.06,1.1.39,2.18.84,3.24,1.37s1.99,1.19,2.81,2c.82.81,1.48,1.8,1.99,2.96.51,1.16.76,2.57.76,4.21,0,1.82-.32,3.53-.95,5.12s-1.55,2.97-2.75,4.15c-1.2,1.18-2.68,2.11-4.44,2.79-1.76.68-3.76,1.01-5.99,1.01-1.23,0-2.48-.13-3.75-.38-1.27-.25-2.5-.61-3.7-1.07-1.19-.46-2.31-1.01-3.36-1.64s-1.96-1.34-2.73-2.11l2.71-4.28c.22-.31.5-.56.85-.77.35-.21.73-.31,1.15-.31.54,0,1.09.17,1.64.51.55.34,1.17.72,1.87,1.14.69.42,1.49.79,2.4,1.14s1.97.51,3.19.51c1.66,0,2.95-.37,3.87-1.1.92-.73,1.38-1.89,1.38-3.48,0-.92-.25-1.67-.76-2.25-.5-.58-1.17-1.06-1.99-1.43-.82-.38-1.75-.71-2.8-1-1.05-.29-2.12-.61-3.22-.96s-2.17-.79-3.22-1.3c-1.05-.51-1.98-1.19-2.8-2.03-.82-.84-1.48-1.89-1.99-3.14-.5-1.25-.76-2.8-.76-4.64,0-1.48.3-2.92.89-4.33.59-1.41,1.47-2.66,2.62-3.76,1.16-1.1,2.57-1.98,4.25-2.64,1.68-.66,3.6-.99,5.77-.99,1.21,0,2.39.09,3.53.28,1.15.19,2.23.47,3.26.84,1.03.37,1.99.81,2.88,1.33.89.51,1.69,1.1,2.4,1.75l-2.27,4.25Z"
        style="fill:none; stroke:#000; stroke-miterlimit:10; stroke-width:3px;" />
</svg>