<svg xmlns="http://www.w3.org/2000/svg" version="1.1" xmlns:xlink="http://www.w3.org/1999/xlink" xmlns:svgjs="http://svgjs.dev/svgjs" width="500" height="500"><svg id="SvgjsSvg1031" xmlns="http://www.w3.org/2000/svg" viewBox="0 0 500 500"><path id="SvgjsPath1030" d="M430,265.28v-10.01h0V70H70v360h360v-92.95" style="fill:none; stroke:#000; stroke-miterlimit:10; stroke-width:7px;"></path><g id="SvgjsG1029"><path d="M396.56,301.76c0,3.79-.65,7.32-1.96,10.58-1.31,3.26-3.15,6.1-5.53,8.51-2.38,2.41-5.24,4.3-8.59,5.67-3.35,1.37-7.06,2.05-11.14,2.05s-7.8-.68-11.16-2.05c-3.36-1.37-6.23-3.26-8.62-5.67-2.39-2.41-4.24-5.25-5.54-8.51-1.31-3.26-1.96-6.79-1.96-10.58s.65-7.32,1.96-10.58c1.31-3.26,3.16-6.1,5.54-8.5,2.39-2.4,5.26-4.28,8.62-5.65,3.36-1.37,7.08-2.05,11.16-2.05s7.79.69,11.14,2.07c3.35,1.38,6.21,3.27,8.59,5.67,2.38,2.4,4.22,5.23,5.53,8.5,1.31,3.26,1.96,6.78,1.96,10.55ZM384.1,301.76c0-2.59-.34-4.93-1.01-7-.67-2.08-1.64-3.83-2.9-5.27-1.26-1.44-2.8-2.54-4.63-3.31-1.82-.77-3.9-1.15-6.23-1.15s-4.45.38-6.28,1.15c-1.84.77-3.38,1.87-4.64,3.31-1.26,1.44-2.23,3.2-2.9,5.27-.67,2.08-1.01,4.41-1.01,7s.34,4.96,1.01,7.04c.67,2.08,1.64,3.83,2.9,5.27,1.26,1.44,2.81,2.54,4.64,3.29s3.93,1.13,6.28,1.13,4.4-.38,6.23-1.13c1.82-.76,3.37-1.85,4.63-3.29,1.26-1.44,2.23-3.2,2.9-5.27.67-2.08,1.01-4.42,1.01-7.04Z"></path><path d="M442.92,286.2c-.36.58-.74,1.01-1.13,1.3-.4.29-.91.43-1.53.43-.55,0-1.15-.17-1.78-.52-.64-.35-1.36-.74-2.16-1.17-.8-.43-1.72-.82-2.75-1.17-1.03-.35-2.21-.52-3.53-.52-2.28,0-3.98.49-5.09,1.46s-1.67,2.29-1.67,3.94c0,1.06.33,1.93,1.01,2.63.67.7,1.55,1.3,2.65,1.8s2.34.97,3.74,1.39c1.4.42,2.84.89,4.3,1.4,1.46.52,2.9,1.12,4.3,1.82,1.4.7,2.65,1.58,3.74,2.66,1.09,1.08,1.97,2.39,2.65,3.94s1.01,3.41,1.01,5.6c0,2.42-.42,4.69-1.26,6.8-.84,2.11-2.06,3.95-3.65,5.53-1.6,1.57-3.56,2.81-5.9,3.71-2.34.9-5,1.35-7.97,1.35-1.63,0-3.29-.17-4.99-.5-1.69-.34-3.33-.81-4.91-1.42-1.58-.61-3.07-1.34-4.46-2.18-1.39-.84-2.6-1.78-3.64-2.81l3.6-5.69c.29-.41.67-.75,1.13-1.03.47-.28.98-.41,1.53-.41.72,0,1.45.23,2.18.68.73.46,1.56.96,2.48,1.51s1.99,1.06,3.19,1.51c1.2.46,2.62.68,4.25.68,2.21,0,3.92-.49,5.15-1.46,1.22-.97,1.84-2.51,1.84-4.63,0-1.22-.34-2.22-1.01-2.99-.67-.77-1.55-1.4-2.65-1.91-1.09-.5-2.33-.95-3.73-1.33s-2.82-.81-4.28-1.28c-1.46-.47-2.89-1.04-4.28-1.73-1.39-.68-2.63-1.58-3.73-2.7s-1.97-2.51-2.65-4.18c-.67-1.67-1.01-3.73-1.01-6.17,0-1.97.4-3.89,1.19-5.76s1.96-3.54,3.49-5c1.54-1.46,3.42-2.63,5.65-3.51,2.23-.88,4.79-1.31,7.67-1.31,1.61,0,3.17.13,4.7.38s2.97.62,4.34,1.12c1.37.49,2.65,1.08,3.83,1.76,1.19.68,2.25,1.46,3.19,2.32l-3.02,5.65Z"></path></g></svg><style>@media (prefers-color-scheme: light) { :root { filter: none; } }
@media (prefers-color-scheme: dark) { :root { filter: invert(100%); } }
</style></svg>